# Blender v2.81 (sub 16) OBJ File: ''
# www.blender.org
mtllib Stander.mtl
o Parrot_stand_Mesh
v 0.500000 1.055879 -0.070066
v 0.500000 1.093173 -0.038772
v 0.500000 1.101627 0.009172
v 0.500000 1.077285 0.051334
v 0.500000 1.031537 0.067985
v 0.500000 0.985789 0.051334
v 0.500000 0.961447 0.009172
v 0.500000 0.969901 -0.038772
v 0.500000 1.007195 -0.070066
v 0.000000 1.031537 -0.074358
v 0.000000 1.055879 -0.070066
v 0.000000 1.093173 -0.038772
v 0.000000 1.101627 0.009172
v 0.000000 1.077285 0.051334
v 0.000000 1.031537 0.067985
v 0.045748 0.985789 0.051334
v 0.070090 0.961447 0.009172
v 0.061636 0.969901 -0.038772
v 0.024342 1.007195 -0.070066
v -0.024342 1.007195 -0.070066
v -0.061636 0.969901 -0.038772
v -0.070090 0.961447 0.009172
v -0.045748 0.985789 0.051334
v 0.000000 0.010182 -0.074358
v -0.024342 0.010182 -0.070065
v -0.061636 0.010182 -0.038772
v -0.070090 0.010182 0.009172
v -0.045748 0.010182 0.051334
v 0.000000 0.010182 0.067985
v 0.045748 0.010182 0.051334
v 0.070090 0.010182 0.009172
v 0.061636 0.010182 -0.038772
v 0.024342 0.010182 -0.070065
v -0.500000 1.055879 -0.070066
v -0.500000 1.093173 -0.038772
v -0.500000 1.101627 0.009172
v -0.500000 1.077285 0.051334
v -0.500000 1.031537 0.067985
v -0.500000 0.985789 0.051334
v -0.500000 0.961447 0.009172
v -0.500000 0.969901 -0.038772
v -0.500000 1.007195 -0.070066
v -0.711712 -0.000339 0.697434
v 0.711712 -0.000339 0.697434
v -0.711712 -0.000339 -0.725990
v 0.711712 -0.000339 -0.725990
v -0.711712 0.047108 0.697434
v 0.711712 0.047108 0.697434
v -0.711712 0.047108 -0.725990
v 0.711712 0.047108 -0.725990
v 0.500000 0.985789 0.051334
v 0.500000 0.961447 0.009172
v 0.070090 0.961447 0.009172
v 0.061636 0.969901 -0.038772
v 0.500000 0.969901 -0.038772
v -0.061636 0.969901 -0.038772
v -0.500000 0.985789 0.051334
v -0.500000 0.961447 0.009172
v -0.500000 1.055879 -0.070066
v -0.500000 1.093173 -0.038772
v 0.500000 1.007195 -0.070066
v -0.070090 0.961447 0.009172
v 0.500000 1.101627 0.009172
v 0.500000 1.077285 0.051334
v -0.500000 1.007195 -0.070066
v -0.500000 1.031537 0.067985
v -0.500000 0.969901 -0.038772
v -0.500000 1.101627 0.009172
v 0.500000 1.031537 0.067985
v 0.500000 1.093173 -0.038772
v 0.500000 1.055879 -0.070066
v -0.500000 1.077285 0.051334
v -0.711712 0.047108 -0.725990
v -0.711712 0.047108 -0.725990
v -0.711712 0.047108 0.697434
v -0.711712 0.047108 0.697434
v 0.711712 0.047108 0.697434
v 0.711712 0.047108 0.697434
v 0.711712 0.047108 -0.725990
v 0.711712 0.047108 -0.725990
v 0.711712 -0.000339 -0.725990
v 0.711712 -0.000339 0.697434
v -0.711712 -0.000339 0.697434
v -0.711712 -0.000339 -0.725990
vt -0.907050 1.272084
vt -0.396607 1.331680
vt -0.907369 1.328809
vt 0.261201 1.272111
vt -0.249226 1.331680
vt -0.292994 1.275200
vt -0.322822 1.048025
vt 0.260357 1.102384
vt -0.322846 1.104847
vt 2.122574 -0.210447
vt 1.013548 -0.153690
vt 1.013548 -0.210447
vt 1.013549 0.130100
vt 2.132431 0.073342
vt 2.175912 0.130101
vt 1.013548 -0.040173
vt 2.122575 0.016584
vt 1.013548 0.016585
vt -0.241574 0.877461
vt 0.259205 0.818699
vt 0.259434 0.875435
vt 1.013548 0.073343
vt 0.260884 1.215388
vt 1.013548 -0.352778
vt 2.175910 -0.323964
vt 1.013548 -0.323963
vt 1.013549 0.158917
vt 2.204290 0.158917
vt 0.259663 0.932171
vt -0.269712 0.934311
vt -0.322913 1.218615
vt -0.322914 1.247869
vt -0.352835 1.275200
vt -0.322797 0.991262
vt 0.260122 1.045642
vt 0.259893 0.988906
vt -0.322872 1.161705
vt -0.904709 0.818137
vt -0.403924 0.877371
vt -0.904991 0.874879
vt -0.906732 1.215360
vt -0.906426 1.158607
vt 2.132430 -0.267205
vt 1.013548 -0.267205
vt -0.905555 0.988363
vt -0.905840 1.045108
vt 0.260603 1.159130
vt 2.150953 -0.153689
vt 1.013548 -0.096932
vt -0.375835 0.934255
vt -0.906131 1.101858
vt 2.150955 -0.040175
vt -0.905273 0.931621
vt 0.913347 0.756803
vt 0.868051 0.881251
vt 0.537809 0.823021
vt 0.583104 0.248807
vt 0.828219 0.205586
vt 0.913347 0.439472
vt 1.244815 -0.552965
vt -0.552965 1.244815
vt -0.552965 -0.552965
vt 0.752117 1.388898
vt -0.907369 1.444214
vt -0.907369 1.388898
vt -0.907369 1.556747
vt 0.752117 1.501431
vt 0.752117 1.556748
vt -0.907369 1.387947
vt 0.752117 1.332631
vt 0.752117 1.387947
vt 0.752117 1.445164
vt -0.907369 1.500481
vt -0.907369 1.445164
vt 0.261517 1.328833
vt -0.251655 0.820766
vt 2.204288 -0.352780
vt -0.393788 0.820678
vt 2.204288 -0.096931
vt 0.753359 0.947469
vt 0.622936 0.924472
vt 0.537809 0.690586
vt 0.622936 0.589135
vt 0.753360 0.566138
vt 0.868051 0.632355
vt 0.828219 0.540924
vt 0.697797 0.563920
vt 0.583104 0.497703
vt 0.537809 0.373255
vt 0.697796 0.182589
vt 0.913347 0.307037
vt 1.244815 1.244815
vt 0.752117 1.444214
vt -0.907369 1.501431
vt -0.907369 1.332631
vt 0.752117 1.500481
vn 0.0000 -0.3420 -0.9397
vn -0.0000 -0.8217 -0.5699
vn 0.0000 -0.8660 -0.5000
vn 0.1792 -0.0860 -0.9800
vn -0.0000 0.6428 0.7660
vn -0.0000 0.9848 0.1736
vn 0.9795 0.0000 0.2013
vn 0.6428 0.0000 0.7660
vn 0.9848 0.0000 0.1736
vn -0.4226 -0.0000 -0.9063
vn -0.8217 -0.0000 -0.5699
vn -0.1792 -0.0860 -0.9800
vn -0.6428 0.0000 0.7660
vn -0.9795 0.0000 0.2013
vn -0.9848 0.0000 0.1736
vn -0.0000 -0.9795 0.2012
vn -0.0000 -0.9848 0.1736
vn -0.8660 -0.0000 -0.5000
vn 0.0000 0.3420 -0.9397
vn 0.0000 -0.0000 -1.0000
vn 0.4226 -0.0000 -0.9063
vn -0.0000 0.1282 -0.9918
vn -0.0000 -0.6428 0.7660
vn 0.2917 -0.2917 0.9109
vn 0.0000 0.3664 -0.9304
vn -0.0000 0.0854 0.9963
vn -0.0000 0.0000 1.0000
vn 0.0000 0.8660 -0.5000
vn -0.0000 -0.9795 0.2013
vn 0.8217 -0.0000 -0.5699
vn 0.8660 -0.0000 -0.5000
vn -0.2917 -0.2917 0.9109
vn 1.0000 0.0000 0.0000
vn -1.0000 -0.0000 0.0000
vn 0.0000 1.0000 -0.0000
usemtl Parrot_stand_Wood
s 1
f 65/1/1 21/2/2 67/3/3
f 61/4/1 18/5/2 19/6/4
f 14/7/5 63/8/6 13/9/6
f 17/10/7 30/11/8 31/12/9
f 25/13/10 56/14/11 20/15/12
f 28/16/13 62/17/14 27/18/15
f 53/19/16 55/20/3 52/21/17
f 26/22/18 62/17/14 56/14/11
f 71/23/19 61/4/1 19/6/4
f 24/24/20 19/25/4 33/26/21
f 24/27/20 20/15/12 10/28/22
f 53/19/16 51/29/23 16/30/24
f 11/31/25 10/32/22 20/33/12
f 15/34/26 64/35/5 14/7/5
f 16/30/24 69/36/27 15/34/26
f 63/8/6 12/37/28 13/9/6
f 67/38/3 22/39/29 58/40/17
f 12/37/28 59/41/19 60/42/28
f 33/26/21 54/43/30 32/44/31
f 66/45/27 14/7/5 72/46/5
f 70/47/28 11/31/25 12/37/28
f 16/48/24 29/49/27 30/11/8
f 66/45/27 23/50/32 15/34/26
f 32/44/31 17/10/7 31/12/9
f 72/46/5 13/9/6 68/51/6
f 13/9/6 60/42/28 68/51/6
f 29/49/27 23/52/32 28/16/13
f 57/53/23 22/39/29 23/50/32
f 1/54/33 2/55/33 5/56/33
f 42/57/34 40/58/34 38/59/34
f 77/60/35 73/61/35 75/62/35
f 81/63/33 78/64/33 44/65/33
f 83/66/34 74/67/34 84/68/34
f 45/69/20 50/70/20 46/71/20
f 82/72/27 47/73/27 43/74/27
f 65/1/1 20/33/12 21/2/2
f 61/4/1 55/75/3 18/5/2
f 14/7/5 64/35/5 63/8/6
f 17/10/7 16/48/24 30/11/8
f 25/13/10 26/22/18 56/14/11
f 28/16/13 23/52/32 62/17/14
f 53/19/16 18/76/2 55/20/3
f 26/22/18 27/18/15 62/17/14
f 19/6/4 10/32/22 11/31/25
f 11/31/25 71/23/19 19/6/4
f 24/24/20 10/77/22 19/25/4
f 24/27/20 25/13/10 20/15/12
f 53/19/16 52/21/17 51/29/23
f 65/1/1 59/41/19 20/33/12
f 59/41/19 11/31/25 20/33/12
f 15/34/26 69/36/27 64/35/5
f 16/30/24 51/29/23 69/36/27
f 63/8/6 70/47/28 12/37/28
f 67/38/3 21/78/2 22/39/29
f 12/37/28 11/31/25 59/41/19
f 33/26/21 19/25/4 54/43/30
f 66/45/27 15/34/26 14/7/5
f 70/47/28 71/23/19 11/31/25
f 16/48/24 15/79/26 29/49/27
f 66/45/27 57/53/23 23/50/32
f 32/44/31 54/43/30 17/10/7
f 72/46/5 14/7/5 13/9/6
f 13/9/6 12/37/28 60/42/28
f 29/49/27 15/79/26 23/52/32
f 57/53/23 58/40/17 22/39/29
f 3/80/33 4/81/33 2/55/33
f 4/81/33 5/56/33 2/55/33
f 5/56/33 6/82/33 7/83/33
f 7/83/33 8/84/33 5/56/33
f 8/84/33 9/85/33 5/56/33
f 9/85/33 1/54/33 5/56/33
f 37/86/34 36/87/34 38/59/34
f 36/87/34 35/88/34 38/59/34
f 35/88/34 34/89/34 42/57/34
f 42/57/34 41/90/34 40/58/34
f 40/58/34 39/91/34 38/59/34
f 35/88/34 42/57/34 38/59/34
f 77/60/35 79/92/35 73/61/35
f 81/63/33 80/93/33 78/64/33
f 83/66/34 76/94/34 74/67/34
f 45/69/20 49/95/20 50/70/20
f 82/72/27 48/96/27 47/73/27
